<svg data-v-36a28b66="" data-v-d94c9556="" xmlns="http://www.w3.org/2000/svg"
    stroke="inherit" viewBox="0 0 24 24" class="Icon ">
    <path data-v-36a28b66=""
        d="M6.5 16.5H3.5M6.5 16.5C6.5 18.1569 7.84315 19.5 9.5 19.5C11.1569 19.5 12.5 18.1569 12.5 16.5M6.5 16.5C6.5 14.8431 7.84315 13.5 9.5 13.5C11.1569 13.5 12.5 14.8431 12.5 16.5M20.5 16.5H12.5M11.5 7.5H3.5M11.5 7.5C11.5 9.15685 12.8431 10.5 14.5 10.5C16.1569 10.5 17.5 9.15685 17.5 7.5M11.5 7.5C11.5 5.84315 12.8431 4.5 14.5 4.5C16.1569 4.5 17.5 5.84315 17.5 7.5M20.5 7.5H17.5"
        stroke-width="1" stroke-linecap="round" stroke-linejoin="round"
        vector-effect="non-scaling-stroke"></path>
</svg>